<svg width="120" height="106" viewBox="0 0 120 106" fill="none" xmlns="http://www.w3.org/2000/svg">
<path d="M0.444336 67.8889H119.555V38.1111H0.444336V67.8889ZM30.2221 49.2778H82.3332V56.7222H30.2221V49.2778ZM15.3332 49.2778H22.7777V56.7222H15.3332V49.2778Z" fill="#FF5F00"/>
<path d="M112.111 0.888916H7.88878C5.91439 0.888916 4.02087 1.67324 2.62476 3.06934C1.22866 4.46545 0.444336 6.35897 0.444336 8.33336V30.6667H119.555V8.33336C119.555 6.35897 118.771 4.46545 117.375 3.06934C115.979 1.67324 114.085 0.888916 112.111 0.888916ZM22.7777 19.5H15.3332V12.0556H22.7777V19.5ZM82.3332 19.5H30.2221V12.0556H82.3332V19.5Z" fill="#FF5F00"/>
<path d="M0.444336 97.6667C0.444336 99.6411 1.22866 101.535 2.62476 102.931C4.02087 104.327 5.91439 105.111 7.88878 105.111H112.111C114.085 105.111 115.979 104.327 117.375 102.931C118.771 101.535 119.555 99.6411 119.555 97.6667V75.3334H0.444336V97.6667ZM30.2221 86.5H82.3332V93.9445H30.2221V86.5ZM15.3332 86.5H22.7777V93.9445H15.3332V86.5Z" fill="#FF5F00"/>
</svg>
