<svg width="256" height="256" viewBox="0 0 256 256" fill="none"
	xmlns="http://www.w3.org/2000/svg">
	<path d="M252.128 158.952C235.04 227.584 165.576 269.248 97.0476 252.168C28.5036 235.208 -13.2484 165.576 3.87158 97.1197C20.9196 28.5037 90.4236 -13.2483 158.912 3.83171C227.496 20.9597 269.248 90.3837 252.128 159V158.952ZM184.416 109.752C186.952 92.7917 173.992 83.6317 156.248 77.4637L162.008 54.4957L147.96 50.9517L142.384 73.4557C138.712 72.4957 134.888 71.6637 131.048 70.7917L136.64 48.0797L122.552 44.5837L116.8 67.6637L107.84 65.5437L88.5116 60.7037L84.7596 75.7517C84.7596 75.7517 95.1836 78.1197 94.9276 78.2477C100.648 79.7117 101.68 83.4077 101.52 86.4157L85.7676 149.576C84.9756 151.336 83.1836 153.92 79.2316 152.912C79.3596 153.112 68.9836 150.376 68.9836 150.376L61.9436 166.448L80.1916 170.992L90.1036 173.576L84.3116 196.96L98.3996 200.416L104.192 177.288C108.024 178.376 111.688 179.328 115.352 180.208L109.944 203.16L124.024 206.704L129.816 183.336C153.728 187.872 171.736 186.08 179.32 164.416C185.4 146.952 178.976 136.92 166.36 130.336C175.44 128.248 182.36 122.208 184.272 109.752H184.416ZM152.288 154.792C148 172.288 118.624 162.792 109.088 160.416L116.792 129.504C126.336 131.96 156.832 136.664 152.288 154.792ZM156.672 109.544C152.704 125.456 128.288 117.416 120.328 115.408L127.336 87.2477C135.248 89.1597 160.784 92.8237 156.672 109.496V109.544Z" fill="#FF5F00"/>
</svg>
