<svg width="62" height="70" viewBox="0 0 62 70" fill="none"
	xmlns="http://www.w3.org/2000/svg">
	<path d="M61.4286 10V16.25C61.4286 21.7578 47.6712 26.25 30.7143 26.25C13.7574 26.25 0 21.7578 0 16.25V10C0 4.49217 13.7574 0 30.7143 0C47.6712 0 61.4286 4.49217 61.4286 10ZM61.4286 24.0625V38.125C61.4286 43.6328 47.6712 48.125 30.7143 48.125C13.7574 48.125 0 43.6328 0 38.125V24.0625C6.59877 28.5938 18.6765 30.7032 30.7143 30.7032C42.7521 30.7032 54.8297 28.5938 61.4286 24.0625ZM61.4286 45.9375V60C61.4286 65.5078 47.6712 70 30.7143 70C13.7574 70 0 65.5078 0 60V45.9375C6.59877 50.4688 18.6765 52.5782 30.7143 52.5782C42.7521 52.5782 54.8297 50.4688 61.4286 45.9375Z" fill="#FF5F00"/>
</svg>
