<svg width="98" height="70" viewBox="0 0 98 70" fill="none"
	xmlns="http://www.w3.org/2000/svg">
	<path d="M19.5503 56.3771C16.7795 56.3771 14.2611 54.1143 14.2611 51.3556C14.2611 48.597 16.524 46.3189 19.5503 46.3189C22.5918 46.3189 24.8759 48.5848 24.8759 51.3556C24.8759 54.1143 22.3424 56.3771 19.5685 56.3771H19.5503ZM84.4831 28.9581C83.9265 24.9342 81.4416 21.6554 78.1599 19.1523L76.8794 18.1395L75.8483 19.3895C73.8531 21.6554 73.0471 25.6793 73.2965 28.6874C73.5368 30.9715 74.2607 33.2344 75.5472 34.9924C74.501 35.5307 73.2357 36.0052 72.2502 36.5284C69.9387 37.2857 67.688 37.5412 65.4403 37.5412H0.397975L0.142489 39.0285C-0.349481 43.9347 0.43745 48.8847 2.42665 53.3965L3.42426 55.1575V55.3917C9.50725 65.4682 20.3259 70 32.1269 70C54.8134 70 73.4091 60.1942 82.2294 39.0467C88.0113 39.2992 93.8449 37.7936 96.5822 32.249L97.3122 30.9989L96.1077 30.2355C92.8138 28.2251 88.3124 27.9574 84.547 28.9702L84.4649 28.9854L84.4831 28.9581ZM52.0091 24.9342H42.1577V34.7521H52.0091V24.9342ZM52.0091 12.5948H42.1577V22.4128H52.0091V12.5948ZM52.0091 0H42.1577V9.82099H52.0091V0ZM64.0473 24.9342H54.2568V34.7521H64.0778V24.9342H64.0473ZM27.5676 24.9342H17.7771V34.7521H27.5981V24.9342H27.5676ZM39.8431 24.9342H30.1195V34.7521H39.91V24.9342H39.8431ZM15.4017 24.9342H5.67193V34.7521H15.5264V24.9342H15.4017ZM39.8431 12.5948H30.1195V22.4128H39.91V12.607L39.8431 12.5948ZM27.5007 12.5948H17.7923V22.4128H27.5829V12.607L27.519 12.5948H27.5007Z" fill="#FF5F00"/>
</svg>
