<svg width="70" height="70" viewBox="0 0 70 70" fill="none"
	xmlns="http://www.w3.org/2000/svg">
	<path d="M2.07531 30.0613L22.3205 9.78109L28.2399 15.7356C27.3993 18.7128 28.7653 21.9702 31.4974 23.5464V42.951C29.3958 44.1419 27.9947 46.4186 27.9947 49.0105C27.9947 50.8684 28.7328 52.6502 30.0465 53.964C31.3603 55.2777 33.1421 56.0158 35 56.0158C36.8579 56.0158 38.6397 55.2777 39.9535 53.964C41.2672 52.6502 42.0053 50.8684 42.0053 49.0105C42.0053 46.4186 40.6042 44.1419 38.5026 42.951V25.9282L45.7531 33.2487C45.5079 33.7741 45.5079 34.3695 45.5079 35C45.5079 36.8579 46.2459 38.6397 47.5597 39.9535C48.8734 41.2672 50.6552 42.0053 52.5131 42.0053C54.371 42.0053 56.1529 41.2672 57.4666 39.9535C58.7803 38.6397 59.5184 36.8579 59.5184 35C59.5184 33.1421 58.7803 31.3603 57.4666 30.0465C56.1529 28.7328 54.371 27.9947 52.5131 27.9947C51.8827 27.9947 51.2872 27.9947 50.7618 28.2399L41.7601 19.2382C42.195 17.6159 42.0264 15.8909 41.2856 14.3835C40.5448 12.8761 39.2821 11.6888 37.732 11.042C36.2259 10.4816 34.6497 10.3415 33.2487 10.7268L27.2942 4.80736L30.0613 2.07531C32.7933 -0.691769 37.2067 -0.691769 39.9387 2.07531L67.9247 30.0613C70.6918 32.7933 70.6918 37.2067 67.9247 39.9387L39.9387 67.9247C37.2067 70.6918 32.7933 70.6918 30.0613 67.9247L2.07531 39.9387C-0.691769 37.2067 -0.691769 32.7933 2.07531 30.0613Z" fill="#FF5F00"/>
</svg>
