<svg width="1024" height="704" viewBox="0 0 1024 704" fill="none" xmlns="http://www.w3.org/2000/svg">
<path d="M0 704V256C0 238 6.16667 222.833 18.5 210.5C30.8333 198.167 46 192 64 192H960C977.333 192 992.333 198.167 1005 210.5C1017.67 222.833 1024 238 1024 256V704H0ZM640 128V64C640 46.6667 646.167 31.6667 658.5 19C670.833 6.33333 686 0 704 0H832C849.333 0 864.333 6.33333 877 19C889.667 31.6667 896 46.6667 896 64V128H640ZM128 128V64C128 46.6667 134.167 31.6667 146.5 19C158.833 6.33333 174 0 192 0H320C338 0 353.167 6.33333 365.5 19C377.833 31.6667 384 46.6667 384 64V128H128Z" fill="#FF5F00"/>
</svg>
