<svg width="84" height="76" viewBox="0 0 84 76" fill="none"
	xmlns="http://www.w3.org/2000/svg">
	<path d="M80.0642 38C80.0642 47.1759 62.8128 54.613 41.5321 54.613C20.2514 54.613 3 47.1759 3 38C3 28.8241 20.2514 21.387 41.5321 21.387C62.8128 21.387 80.0642 28.8241 80.0642 38Z" stroke="#FF5F00" stroke-width="6"/>
	<path d="M23.1798 72.0844C31.2 76.4591 45.9138 64.7359 56.0532 45.9133C66.1871 27.0852 67.9046 8.28485 59.8844 3.91563C51.8642 -0.459136 37.1505 11.2641 27.011 30.0867C16.8771 48.9148 15.1596 67.7151 23.1798 72.0844Z" stroke="#FF5F00" stroke-width="6"/>
	<path d="M59.8844 72.0844C51.8642 76.4591 37.1505 64.7359 27.011 45.9133C16.8771 27.0852 15.1596 8.28485 23.1798 3.91563C31.2 -0.459136 45.9138 11.2641 56.0532 30.0867C66.1871 48.9148 67.9046 67.7151 59.8844 72.0844Z" stroke="#FF5F00" stroke-width="6"/>
	<path d="M36.0275 38C36.0275 39.4687 36.6075 40.8772 37.6398 41.9157C38.6721 42.9542 40.0722 43.5377 41.5321 43.5377C42.992 43.5377 44.3921 42.9542 45.4244 41.9157C46.4567 40.8772 47.0367 39.4687 47.0367 38C47.0367 36.5313 46.4567 35.1228 45.4244 34.0843C44.3921 33.0458 42.992 32.4623 41.5321 32.4623C40.0722 32.4623 38.6721 33.0458 37.6398 34.0843C36.6075 35.1228 36.0275 36.5313 36.0275 38Z" stroke="#FF5F00" stroke-width="6"/>
</svg>
