<svg width="477" height="145" viewBox="0 0 477 145" fill="none" xmlns="http://www.w3.org/2000/svg">
<g clip-path="url(#clip0)">
<path d="M0 47.2178V59.5133L3.60756 57.6581L15.651 51.5103L69.564 23.9909V11.2406L0 47.2178Z" fill="#FF5F00"/>
<path d="M7.61597 59.7134L69.564 91.489V78.7205L19.6594 53.5838L7.61597 59.7134Z" fill="#FF5F00"/>
<path d="M382.383 0L308.319 103.166H324.225L397.215 0H382.383Z" fill="#FF5F00"/>
<path d="M389.271 18.7707L385.772 23.7908V23.6998L387.066 21.8264L380.853 30.6843V103.166H394.172V11.7135L389.271 18.7161V18.7707Z" fill="white"/>
<path d="M389.271 18.6797L387.066 21.8264L389.271 18.7161V18.6797Z" fill="black"/>
<path d="M324.553 0H311.234V92.3984L324.553 74.6645V0Z" fill="white"/>
<path d="M80.1316 103.166H93.4687V67.4072V48.3273V0H80.1316V103.166Z" fill="white"/>
<path d="M111.616 53.4383L109.211 56.0393L107.935 57.3489L107.954 57.3852L106.933 58.4947L104.583 61.0412L141.533 103.166L159.535 103.912L113.256 51.6558L111.616 53.4383Z" fill="white"/>
<path d="M154.852 0H137.434L97.1492 44.2348V47.9271V51.583V56.0574V59.7134V63.3147L98.953 61.3867L110.614 48.5819L154.852 0Z" fill="white"/>
<path d="M210.605 84.3044C207.824 87.2381 204.462 89.5617 200.732 91.1274C197.002 92.6931 192.987 93.4667 188.942 93.3988V104.949C194.387 105.038 199.792 103.995 204.811 101.884C209.83 99.7733 214.354 96.6419 218.094 92.6894L219.57 91.1434L212.482 82.2309L210.605 84.3044Z" fill="white"/>
<path d="M163.834 70.0263C163.389 66.4022 163.389 62.7373 163.834 59.1132C165.529 48.0908 172.416 37.8324 185.243 36.923V25.4641H185.115C165.201 26.5554 150.771 43.1981 150.771 65.0427C150.771 86.8872 164.545 103.021 185.042 104.767H185.243V93.0714C172.307 91.3616 165.511 80.885 163.834 70.0263Z" fill="white"/>
<path d="M189.033 25.3368H188.923V36.8866C203.226 37.8688 209.348 49.8733 210.368 59.0768H167.624C167.624 59.0768 167.478 60.0044 167.387 61.5322C167.387 62.2234 167.387 63.0783 167.387 63.9877V65.0972C167.387 65.8793 167.387 66.6978 167.478 67.5527C167.569 68.4076 167.606 69.1715 167.715 70.0082H223.359V65.4792C223.268 42.3614 209.53 26.2281 189.033 25.3368Z" fill="white"/>
<path d="M473.392 45.0533L461.367 51.2011L407.454 78.7205V91.489L477.018 55.4936V43.2163L473.392 45.0533Z" fill="#FF5F00"/>
<path d="M469.384 42.998L407.454 11.2406V23.9909L457.34 49.1458L469.384 42.998Z" fill="#FF5F00"/>
<path d="M289.352 84.3044C286.576 87.2444 283.214 89.5722 279.484 91.1384C275.753 92.7045 271.735 93.4745 267.688 93.3988V104.949C273.153 105.069 278.583 104.047 283.628 101.949C288.674 99.8499 293.224 96.7207 296.986 92.7622L298.48 91.2161L291.374 82.3037L289.352 84.3044Z" fill="white"/>
<path d="M242.581 70.0263C242.13 66.4026 242.13 62.7369 242.581 59.1131C244.276 48.0908 251.145 37.8324 263.99 36.923V25.4641H263.844C243.966 26.5736 229.572 43.2163 229.572 65.0608C229.572 86.9054 243.347 103.039 263.844 104.785H264.063V93.0714C251.072 91.3616 244.276 80.885 242.581 70.0263Z" fill="white"/>
<path d="M267.834 25.3368H267.725V36.8866C282.009 37.8688 288.131 49.8733 289.17 59.0768H246.389C246.389 59.0768 246.243 60.0044 246.152 61.5322C246.152 62.2234 246.152 63.0783 246.152 63.9877C246.152 64.3879 246.152 64.7516 246.152 65.0972C246.152 65.8793 246.152 66.6978 246.152 67.5527C246.152 68.4076 246.28 69.1715 246.389 70.0082H302.033V65.4792C302.033 42.3614 288.277 26.2281 267.834 25.3368Z" fill="white"/>
<path d="M88.6585 120.991C91.639 121.225 94.4217 122.571 96.4513 124.763C98.4809 126.954 99.6082 129.829 99.6082 132.814C99.6082 135.798 98.4809 138.673 96.4513 140.864C94.4217 143.056 91.639 144.403 88.6585 144.636H80.168V120.991H88.6585ZM88.6585 141.271C90.8304 141.171 92.8799 140.238 94.3812 138.668C95.8825 137.098 96.7202 135.011 96.7202 132.841C96.7202 130.67 95.8825 128.583 94.3812 127.013C92.8799 125.443 90.8304 124.511 88.6585 124.41H83.5751V141.271H88.6585Z" fill="white"/>
<path d="M116.134 141.271H127.176V144.691H112.6V121.046H127.176V124.41H116.244V131.086H127.012V134.596H116.134V141.271Z" fill="white"/>
<path d="M155.508 120.991H159.152L149.623 144.764H147.108L137.561 120.991H141.205L148.274 138.725L155.508 120.991Z" fill="white"/>
<path d="M173.527 141.271H184.569V144.691H169.993V121.046H184.459V124.41H173.527V131.086H184.295V134.596H173.527V141.271Z" fill="white"/>
<path d="M200.548 141.271H211.717V144.691H197.141V121.046H200.584L200.548 141.271Z" fill="white"/>
<path d="M224.671 124.247C225.789 123.106 227.124 122.2 228.598 121.581C230.071 120.962 231.654 120.644 233.253 120.644C234.851 120.644 236.434 120.962 237.907 121.581C239.381 122.2 240.716 123.106 241.834 124.247C244.098 126.529 245.369 129.611 245.369 132.823C245.369 136.035 244.098 139.117 241.834 141.399C240.716 142.539 239.381 143.445 237.907 144.064C236.434 144.683 234.851 145.002 233.253 145.002C231.654 145.002 230.071 144.683 228.598 144.064C227.124 143.445 225.789 142.539 224.671 141.399C222.407 139.117 221.136 136.035 221.136 132.823C221.136 129.611 222.407 126.529 224.671 124.247ZM239.393 126.684C238.584 125.87 237.622 125.222 236.562 124.779C235.502 124.336 234.365 124.106 233.216 124.101C232.08 124.105 230.957 124.335 229.912 124.778C228.867 125.222 227.921 125.87 227.131 126.684C226.322 127.49 225.681 128.447 225.244 129.5C224.806 130.553 224.581 131.682 224.581 132.823C224.581 133.963 224.806 135.092 225.244 136.145C225.681 137.199 226.322 138.156 227.131 138.961C227.921 139.776 228.867 140.423 229.912 140.867C230.957 141.311 232.08 141.541 233.216 141.544C234.935 141.531 236.611 141.012 238.036 140.053C239.461 139.094 240.571 137.737 241.228 136.151C241.885 134.566 242.06 132.823 241.73 131.139C241.4 129.455 240.581 127.906 239.374 126.684H239.393Z" fill="white"/>
<path d="M266.468 120.955C268.506 121.052 270.429 121.929 271.838 123.404C273.246 124.879 274.031 126.838 274.031 128.876C274.031 130.913 273.246 132.873 271.838 134.347C270.429 135.822 268.506 136.699 266.468 136.797H261.239V144.691H257.777V121.046L266.468 120.955ZM266.468 133.396C267.661 133.396 268.806 132.922 269.65 132.08C270.494 131.237 270.968 130.095 270.968 128.903C270.968 127.712 270.494 126.569 269.65 125.726C268.806 124.884 267.661 124.41 266.468 124.41H261.239V133.396H266.468Z" fill="white"/>
<path d="M289.461 144.691H286.054V121.046H288.842L296.676 132.577L304.529 121.046H307.244V144.691H303.855V127.975L297.642 137.197H295.693L289.48 127.975L289.461 144.691Z" fill="white"/>
<path d="M324.134 141.271H335.248V144.691H320.672V121.046H335.139V124.41H324.207V131.086H334.975V134.596H324.134V141.271Z" fill="white"/>
<path d="M347.638 144.691V120.918H350.28L361.868 137.634V120.955H365.275V144.6H362.578L351.082 128.012V144.6L347.638 144.691Z" fill="white"/>
<path d="M383.586 144.8V124.138H376.298V120.955H394.117V124.138H386.939V144.8H383.586Z" fill="white"/>
</g>
<defs>
<clipPath id="clip0">
<rect width="477" height="145" fill="white"/>
</clipPath>
</defs>
</svg>
